<svg width="234" height="100" viewBox="0 0 234 100" fill="none" xmlns="http://www.w3.org/2000/svg">
<mask id="path-1-outside-1_392_13" maskUnits="userSpaceOnUse" x="-1" y="14" width="234" height="73" fill="black">
<rect fill="white" x="-1" y="14" width="234" height="73"/>
<path d="M5.21484 20H20.8594L37.3828 60.3125H38.0859L54.6094 20H70.2539V80H57.9492V40.9473H57.4512L41.9238 79.707H33.5449L18.0176 40.8008H17.5195V80H5.21484V20ZM100.979 80.8789C96.3501 80.8789 92.3657 79.9414 89.0259 78.0664C85.7056 76.1719 83.147 73.4961 81.3501 70.0391C79.5532 66.5625 78.6548 62.4512 78.6548 57.7051C78.6548 53.0762 79.5532 49.0137 81.3501 45.5176C83.147 42.0215 85.6763 39.2969 88.938 37.3437C92.2192 35.3906 96.0669 34.4141 100.481 34.4141C103.45 34.4141 106.213 34.8926 108.772 35.8496C111.35 36.7871 113.596 38.2031 115.51 40.0977C117.444 41.9922 118.948 44.375 120.022 47.2461C121.096 50.0977 121.633 53.4375 121.633 57.2656V60.6934H83.6353V52.959H109.885C109.885 51.1621 109.495 49.5703 108.713 48.1836C107.932 46.7969 106.848 45.7129 105.461 44.9316C104.094 44.1309 102.502 43.7305 100.686 43.7305C98.7915 43.7305 97.1118 44.1699 95.647 45.0488C94.2017 45.9082 93.0688 47.0703 92.2485 48.5352C91.4282 49.9805 91.0083 51.5918 90.9888 53.3691V60.7227C90.9888 62.9492 91.3989 64.873 92.2192 66.4941C93.0591 68.1152 94.2407 69.3652 95.7642 70.2441C97.2876 71.123 99.0942 71.5625 101.184 71.5625C102.571 71.5625 103.84 71.3672 104.993 70.9766C106.145 70.5859 107.131 70 107.952 69.2187C108.772 68.4375 109.397 67.4805 109.827 66.3477L121.37 67.1094C120.784 69.8828 119.583 72.3047 117.766 74.375C115.969 76.4258 113.645 78.0273 110.793 79.1797C107.961 80.3125 104.69 80.8789 100.979 80.8789ZM146.36 80.7324C142.942 80.7324 139.846 79.8535 137.073 78.0957C134.319 76.3184 132.131 73.7109 130.51 70.2734C128.909 66.8164 128.108 62.5781 128.108 57.5586C128.108 52.4023 128.938 48.1152 130.598 44.6973C132.258 41.2598 134.465 38.6914 137.219 36.9922C139.993 35.2734 143.03 34.4141 146.331 34.4141C148.85 34.4141 150.95 34.8438 152.629 35.7031C154.329 36.543 155.696 37.5977 156.731 38.8672C157.786 40.1172 158.586 41.3477 159.133 42.5586H159.514V20H171.965V80H159.661V72.793H159.133C158.547 74.043 157.717 75.2832 156.643 76.5137C155.588 77.7246 154.211 78.7305 152.512 79.5312C150.833 80.332 148.782 80.7324 146.36 80.7324ZM150.315 70.8008C152.327 70.8008 154.026 70.2539 155.413 69.1602C156.819 68.0469 157.893 66.4941 158.635 64.502C159.397 62.5098 159.778 60.1758 159.778 57.5C159.778 54.8242 159.407 52.5 158.665 50.5273C157.922 48.5547 156.848 47.0312 155.442 45.957C154.036 44.8828 152.327 44.3457 150.315 44.3457C148.264 44.3457 146.536 44.9023 145.129 46.0156C143.723 47.1289 142.659 48.6719 141.936 50.6445C141.213 52.6172 140.852 54.9023 140.852 57.5C140.852 60.1172 141.213 62.4316 141.936 64.4434C142.678 66.4355 143.743 67.998 145.129 69.1309C146.536 70.2441 148.264 70.8008 150.315 70.8008ZM200.039 76.748V35.2637H210.527V76.748H200.039ZM184.541 61.25V50.7617H226.025V61.25H184.541Z"/>
</mask>
<path d="M5.21484 20H20.8594L37.3828 60.3125H38.0859L54.6094 20H70.2539V80H57.9492V40.9473H57.4512L41.9238 79.707H33.5449L18.0176 40.8008H17.5195V80H5.21484V20ZM100.979 80.8789C96.3501 80.8789 92.3657 79.9414 89.0259 78.0664C85.7056 76.1719 83.147 73.4961 81.3501 70.0391C79.5532 66.5625 78.6548 62.4512 78.6548 57.7051C78.6548 53.0762 79.5532 49.0137 81.3501 45.5176C83.147 42.0215 85.6763 39.2969 88.938 37.3437C92.2192 35.3906 96.0669 34.4141 100.481 34.4141C103.45 34.4141 106.213 34.8926 108.772 35.8496C111.35 36.7871 113.596 38.2031 115.51 40.0977C117.444 41.9922 118.948 44.375 120.022 47.2461C121.096 50.0977 121.633 53.4375 121.633 57.2656V60.6934H83.6353V52.959H109.885C109.885 51.1621 109.495 49.5703 108.713 48.1836C107.932 46.7969 106.848 45.7129 105.461 44.9316C104.094 44.1309 102.502 43.7305 100.686 43.7305C98.7915 43.7305 97.1118 44.1699 95.647 45.0488C94.2017 45.9082 93.0688 47.0703 92.2485 48.5352C91.4282 49.9805 91.0083 51.5918 90.9888 53.3691V60.7227C90.9888 62.9492 91.3989 64.873 92.2192 66.4941C93.0591 68.1152 94.2407 69.3652 95.7642 70.2441C97.2876 71.123 99.0942 71.5625 101.184 71.5625C102.571 71.5625 103.84 71.3672 104.993 70.9766C106.145 70.5859 107.131 70 107.952 69.2187C108.772 68.4375 109.397 67.4805 109.827 66.3477L121.37 67.1094C120.784 69.8828 119.583 72.3047 117.766 74.375C115.969 76.4258 113.645 78.0273 110.793 79.1797C107.961 80.3125 104.69 80.8789 100.979 80.8789ZM146.36 80.7324C142.942 80.7324 139.846 79.8535 137.073 78.0957C134.319 76.3184 132.131 73.7109 130.51 70.2734C128.909 66.8164 128.108 62.5781 128.108 57.5586C128.108 52.4023 128.938 48.1152 130.598 44.6973C132.258 41.2598 134.465 38.6914 137.219 36.9922C139.993 35.2734 143.03 34.4141 146.331 34.4141C148.85 34.4141 150.95 34.8438 152.629 35.7031C154.329 36.543 155.696 37.5977 156.731 38.8672C157.786 40.1172 158.586 41.3477 159.133 42.5586H159.514V20H171.965V80H159.661V72.793H159.133C158.547 74.043 157.717 75.2832 156.643 76.5137C155.588 77.7246 154.211 78.7305 152.512 79.5312C150.833 80.332 148.782 80.7324 146.36 80.7324ZM150.315 70.8008C152.327 70.8008 154.026 70.2539 155.413 69.1602C156.819 68.0469 157.893 66.4941 158.635 64.502C159.397 62.5098 159.778 60.1758 159.778 57.5C159.778 54.8242 159.407 52.5 158.665 50.5273C157.922 48.5547 156.848 47.0312 155.442 45.957C154.036 44.8828 152.327 44.3457 150.315 44.3457C148.264 44.3457 146.536 44.9023 145.129 46.0156C143.723 47.1289 142.659 48.6719 141.936 50.6445C141.213 52.6172 140.852 54.9023 140.852 57.5C140.852 60.1172 141.213 62.4316 141.936 64.4434C142.678 66.4355 143.743 67.998 145.129 69.1309C146.536 70.2441 148.264 70.8008 150.315 70.8008ZM200.039 76.748V35.2637H210.527V76.748H200.039ZM184.541 61.25V50.7617H226.025V61.25H184.541Z" fill="white"/>
<path d="M5.21484 20V14H-0.785156V20H5.21484ZM20.8594 20L26.4111 17.7244L24.8845 14H20.8594V20ZM37.3828 60.3125L31.8311 62.5881L33.3577 66.3125H37.3828V60.3125ZM38.0859 60.3125V66.3125H42.1111L43.6377 62.5881L38.0859 60.3125ZM54.6094 20V14H50.5842L49.0576 17.7244L54.6094 20ZM70.2539 20H76.2539V14H70.2539V20ZM70.2539 80V86H76.2539V80H70.2539ZM57.9492 80H51.9492V86H57.9492V80ZM57.9492 40.9473H63.9492V34.9473H57.9492V40.9473ZM57.4512 40.9473V34.9473H53.3913L51.8815 38.716L57.4512 40.9473ZM41.9238 79.707V85.707H45.9837L47.4935 81.9383L41.9238 79.707ZM33.5449 79.707L27.9723 81.931L29.4793 85.707H33.5449V79.707ZM18.0176 40.8008L23.5902 38.5768L22.0832 34.8008H18.0176V40.8008ZM17.5195 40.8008V34.8008H11.5195V40.8008H17.5195ZM17.5195 80V86H23.5195V80H17.5195ZM5.21484 80H-0.785156V86H5.21484V80ZM5.21484 26H20.8594V14H5.21484V26ZM15.3076 22.2756L31.8311 62.5881L42.9346 58.0369L26.4111 17.7244L15.3076 22.2756ZM37.3828 66.3125H38.0859V54.3125H37.3828V66.3125ZM43.6377 62.5881L60.1611 22.2756L49.0576 17.7244L32.5342 58.0369L43.6377 62.5881ZM54.6094 26H70.2539V14H54.6094V26ZM64.2539 20V80H76.2539V20H64.2539ZM70.2539 74H57.9492V86H70.2539V74ZM63.9492 80V40.9473H51.9492V80H63.9492ZM57.9492 34.9473H57.4512V46.9473H57.9492V34.9473ZM51.8815 38.716L36.3541 77.4758L47.4935 81.9383L63.0209 43.1785L51.8815 38.716ZM41.9238 73.707H33.5449V85.707H41.9238V73.707ZM39.1175 77.483L23.5902 38.5768L12.445 43.0248L27.9723 81.931L39.1175 77.483ZM18.0176 34.8008H17.5195V46.8008H18.0176V34.8008ZM11.5195 40.8008V80H23.5195V40.8008H11.5195ZM17.5195 74H5.21484V86H17.5195V74ZM11.2148 80V20H-0.785156V80H11.2148ZM89.0259 78.0664L86.0523 83.2778L86.0705 83.2881L86.0887 83.2983L89.0259 78.0664ZM81.3501 70.0391L76.0199 72.794L76.0263 72.8062L81.3501 70.0391ZM81.3501 45.5176L76.0137 42.7748L76.0137 42.7748L81.3501 45.5176ZM88.938 37.3437L85.8691 32.188L85.8623 32.192L85.8555 32.1961L88.938 37.3437ZM108.772 35.8496L106.67 41.4693L106.696 41.479L106.722 41.4884L108.772 35.8496ZM115.51 40.0977L111.289 44.362L111.3 44.3727L111.311 44.3834L115.51 40.0977ZM120.022 47.2461L114.402 49.3486L114.407 49.3613L120.022 47.2461ZM121.633 60.6934V66.6934H127.633V60.6934H121.633ZM83.6353 60.6934H77.6353V66.6934H83.6353V60.6934ZM83.6353 52.959V46.959H77.6353V52.959H83.6353ZM109.885 52.959V58.959H115.885V52.959H109.885ZM108.713 48.1836L103.486 51.1287L103.486 51.1287L108.713 48.1836ZM105.461 44.9316L102.429 50.1089L102.472 50.1344L102.516 50.1591L105.461 44.9316ZM95.647 45.0488L98.7134 50.206L98.7237 50.1999L98.7339 50.1938L95.647 45.0488ZM92.2485 48.5352L97.4667 51.4968L97.4752 51.4818L97.4836 51.4668L92.2485 48.5352ZM90.9888 53.3691L84.9891 53.3032L84.9888 53.3362V53.3691H90.9888ZM92.2192 66.4941L86.8656 69.2032L86.8786 69.2287L86.8917 69.2542L92.2192 66.4941ZM104.993 70.9766L103.066 65.2942L103.066 65.2942L104.993 70.9766ZM107.952 69.2187L103.814 64.8739L103.814 64.8739L107.952 69.2187ZM109.827 66.3477L110.222 60.3607L105.791 60.0683L104.217 64.2197L109.827 66.3477ZM121.37 67.1094L127.24 68.3496L128.671 61.5781L121.765 61.1224L121.37 67.1094ZM117.766 74.375L113.256 70.418L113.253 70.4209L117.766 74.375ZM110.793 79.1797L113.022 84.7505L113.032 84.7466L113.041 84.7426L110.793 79.1797ZM100.979 74.8789C97.1651 74.8789 94.2363 74.1107 91.9631 72.8345L86.0887 83.2983C90.4951 85.7721 95.5351 86.8789 100.979 86.8789V74.8789ZM91.9994 72.8551C89.7014 71.5438 87.9495 69.726 86.6739 67.2719L76.0263 72.8062C78.3445 77.2662 81.7097 80.7999 86.0523 83.2778L91.9994 72.8551ZM86.6802 67.2842C85.4076 64.8219 84.6548 61.6942 84.6548 57.7051H72.6548C72.6548 63.2081 73.6988 68.3031 76.0199 72.794L86.6802 67.2842ZM84.6548 57.7051C84.6548 53.8612 85.3969 50.7694 86.6865 48.2603L76.0137 42.7748C73.7095 47.2579 72.6548 52.2912 72.6548 57.7051H84.6548ZM86.6865 48.2603C87.9896 45.725 89.7536 43.8488 92.0204 42.4914L85.8555 32.1961C81.599 34.7449 78.3044 38.318 76.0137 42.7748L86.6865 48.2603ZM92.0069 42.4995C94.2231 41.1803 96.9762 40.4141 100.481 40.4141V28.4141C95.1576 28.4141 90.2154 29.6009 85.8691 32.188L92.0069 42.4995ZM100.481 40.4141C102.794 40.4141 104.84 40.7848 106.67 41.4693L110.874 30.2299C107.587 29.0004 104.105 28.4141 100.481 28.4141V40.4141ZM106.722 41.4884C108.501 42.1355 110.003 43.0885 111.289 44.362L119.731 35.8333C117.19 33.3177 114.199 31.4387 110.822 30.2108L106.722 41.4884ZM111.311 44.3834C112.539 45.5862 113.595 47.1912 114.402 49.3486L125.642 45.1435C124.3 41.5588 122.349 38.3981 119.709 35.8119L111.311 44.3834ZM114.407 49.3613C115.171 51.3883 115.633 53.9823 115.633 57.2656H127.633C127.633 52.8927 127.022 48.807 125.637 45.1309L114.407 49.3613ZM115.633 57.2656V60.6934H127.633V57.2656H115.633ZM121.633 54.6934H83.6353V66.6934H121.633V54.6934ZM89.6353 60.6934V52.959H77.6353V60.6934H89.6353ZM83.6353 58.959H109.885V46.959H83.6353V58.959ZM115.885 52.959C115.885 50.2657 115.291 47.6352 113.941 45.2385L103.486 51.1287C103.698 51.5054 103.885 52.0585 103.885 52.959H115.885ZM113.941 45.2385C112.622 42.8968 110.748 41.0234 108.406 39.7042L102.516 50.1591C102.948 50.4023 103.243 50.6969 103.486 51.1287L113.941 45.2385ZM108.494 39.7543C106.079 38.34 103.41 37.7305 100.686 37.7305V49.7305C101.595 49.7305 102.109 49.9218 102.429 50.1089L108.494 39.7543ZM100.686 37.7305C97.826 37.7305 95.0566 38.4059 92.56 39.9039L98.7339 50.1938C99.167 49.9339 99.757 49.7305 100.686 49.7305V37.7305ZM92.5805 39.8916C90.2309 41.2887 88.3495 43.2178 87.0135 45.6035L97.4836 51.4668C97.7882 50.9229 98.1724 50.5277 98.7134 50.206L92.5805 39.8916ZM87.0304 45.5735C85.6739 47.9636 85.019 50.5829 84.9891 53.3032L96.9884 53.4351C96.9976 52.6007 97.1826 51.9973 97.4667 51.4968L87.0304 45.5735ZM84.9888 53.3691V60.7227H96.9888V53.3691H84.9888ZM84.9888 60.7227C84.9888 63.6816 85.5351 66.5739 86.8656 69.2032L97.5728 63.7851C97.2627 63.1722 96.9888 62.2169 96.9888 60.7227H84.9888ZM86.8917 69.2542C88.238 71.8527 90.21 73.9667 92.7658 75.4413L98.7625 65.047C98.2715 64.7638 97.8802 64.3778 97.5467 63.7341L86.8917 69.2542ZM92.7658 75.4413C95.3591 76.9374 98.2406 77.5625 101.184 77.5625V65.5625C99.9479 65.5625 99.2161 65.3087 98.7625 65.047L92.7658 75.4413ZM101.184 77.5625C103.136 77.5625 105.066 77.287 106.919 76.659L103.066 65.2942C102.614 65.4474 102.006 65.5625 101.184 65.5625V77.5625ZM106.919 76.659C108.835 76.0095 110.592 74.9898 112.09 73.5636L103.814 64.8739C103.671 65.0102 103.455 65.1623 103.066 65.2942L106.919 76.659ZM112.09 73.5636C113.605 72.1204 114.711 70.3886 115.437 68.4756L104.217 64.2197C104.083 64.5723 103.939 64.7546 103.814 64.8739L112.09 73.5636ZM109.432 72.3346L120.975 73.0964L121.765 61.1224L110.222 60.3607L109.432 72.3346ZM115.499 65.8691C115.12 67.666 114.373 69.1448 113.256 70.418L122.276 78.332C124.792 75.4646 126.448 72.0996 127.24 68.3496L115.499 65.8691ZM113.253 70.4209C112.15 71.6798 110.639 72.7707 108.545 73.6167L113.041 84.7426C116.651 83.284 119.788 81.1718 122.279 78.3291L113.253 70.4209ZM108.565 73.6088C106.577 74.404 104.087 74.8789 100.979 74.8789V86.8789C105.292 86.8789 109.346 86.221 113.022 84.7505L108.565 73.6088ZM137.073 78.0957L133.819 83.137L133.84 83.1503L133.861 83.1635L137.073 78.0957ZM130.51 70.2734L125.066 72.7956L125.075 72.8142L125.083 72.8327L130.51 70.2734ZM130.598 44.6973L135.995 47.3187L136.001 47.3066L130.598 44.6973ZM137.219 36.9922L140.37 42.0984L140.38 42.0922L137.219 36.9922ZM152.629 35.7031L149.897 41.0446L149.934 41.0636L149.971 41.082L152.629 35.7031ZM156.731 38.8672L152.081 42.6588L152.113 42.6979L152.145 42.7364L156.731 38.8672ZM159.133 42.5586L153.665 45.0281L155.259 48.5586H159.133V42.5586ZM159.514 42.5586V48.5586H165.514V42.5586H159.514ZM159.514 20V14H153.514V20H159.514ZM171.965 20H177.965V14H171.965V20ZM171.965 80V86H177.965V80H171.965ZM159.661 80H153.661V86H159.661V80ZM159.661 72.793H165.661V66.793H159.661V72.793ZM159.133 72.793V66.793H155.319L153.701 70.2464L159.133 72.793ZM156.643 76.5137L152.123 72.5677L152.119 72.573L156.643 76.5137ZM152.512 79.5312L149.954 74.1038L149.942 74.1095L149.93 74.1153L152.512 79.5312ZM155.413 69.1602L159.128 73.8712L159.137 73.8644L155.413 69.1602ZM158.635 64.502L153.031 62.3591L153.022 62.3832L153.013 62.4073L158.635 64.502ZM158.665 50.5273L164.28 48.4145L164.28 48.4145L158.665 50.5273ZM145.129 46.0156L141.405 41.3113L141.405 41.3113L145.129 46.0156ZM141.936 64.4434L136.289 66.4718L136.301 66.505L136.314 66.538L141.936 64.4434ZM145.129 69.1309L141.334 73.7775L141.369 73.8066L141.405 73.8351L145.129 69.1309ZM146.36 74.7324C144.03 74.7324 142.057 74.1511 140.285 73.0279L133.861 83.1635C137.635 85.5559 141.853 86.7324 146.36 86.7324V74.7324ZM140.326 73.0544C138.657 71.9769 137.158 70.3024 135.937 67.7142L125.083 72.8327C127.105 77.1195 129.981 80.6598 133.819 83.137L140.326 73.0544ZM135.954 67.7513C134.816 65.2936 134.108 61.9712 134.108 57.5586H122.108C122.108 63.1851 123.002 68.3392 125.066 72.7956L135.954 67.7513ZM134.108 57.5586C134.108 53.0031 134.847 49.6821 135.995 47.3187L125.201 42.0758C123.029 46.5483 122.108 51.8016 122.108 57.5586H134.108ZM136.001 47.3066C137.255 44.7111 138.753 43.0961 140.37 42.0984L134.069 31.886C130.178 34.2867 127.262 37.8084 125.195 42.0879L136.001 47.3066ZM140.38 42.0922C142.192 40.969 144.133 40.4141 146.331 40.4141V28.4141C141.927 28.4141 137.793 29.5779 134.059 31.8921L140.38 42.0922ZM146.331 40.4141C148.205 40.4141 149.298 40.7384 149.897 41.0446L155.362 30.3616C152.601 28.9491 149.495 28.4141 146.331 28.4141V40.4141ZM149.971 41.082C151.021 41.6008 151.667 42.1515 152.081 42.6588L161.381 35.0756C159.724 33.0438 157.637 31.4851 155.288 30.3243L149.971 41.082ZM152.145 42.7364C152.921 43.6564 153.392 44.4228 153.665 45.0281L164.602 40.0891C163.781 38.2725 162.65 36.578 161.317 34.998L152.145 42.7364ZM159.133 48.5586H159.514V36.5586H159.133V48.5586ZM165.514 42.5586V20H153.514V42.5586H165.514ZM159.514 26H171.965V14H159.514V26ZM165.965 20V80H177.965V20H165.965ZM171.965 74H159.661V86H171.965V74ZM165.661 80V72.793H153.661V80H165.661ZM159.661 66.793H159.133V78.793H159.661V66.793ZM153.701 70.2464C153.391 70.907 152.895 71.684 152.123 72.5677L161.163 80.4596C162.54 78.8824 163.704 77.179 164.566 75.3396L153.701 70.2464ZM152.119 72.573C151.694 73.0602 151.028 73.5976 149.954 74.1038L155.07 84.9587C157.394 83.8633 159.483 82.389 161.168 80.4544L152.119 72.573ZM149.93 74.1153C149.262 74.4339 148.147 74.7324 146.36 74.7324V86.7324C149.416 86.7324 152.403 86.2302 155.094 84.9472L149.93 74.1153ZM150.315 76.8008C153.478 76.8008 156.538 75.9142 159.128 73.8712L151.697 64.4492C151.514 64.5936 151.176 64.8008 150.315 64.8008V76.8008ZM159.137 73.8644C161.55 71.9541 163.205 69.4237 164.258 66.5966L153.013 62.4073C152.582 63.5646 152.088 64.1397 151.688 64.4559L159.137 73.8644ZM164.24 66.6448C165.32 63.819 165.778 60.7291 165.778 57.5H153.778C153.778 59.6225 153.474 61.2005 153.031 62.3591L164.24 66.6448ZM165.778 57.5C165.778 54.2886 165.335 51.2172 164.28 48.4145L153.049 52.6402C153.479 53.7828 153.778 55.3598 153.778 57.5H165.778ZM164.28 48.4145C163.219 45.5926 161.542 43.0667 159.084 41.189L151.8 50.7251C152.154 50.9958 152.626 51.5168 153.049 52.6402L164.28 48.4145ZM159.084 41.189C156.491 39.2083 153.454 38.3457 150.315 38.3457V50.3457C151.199 50.3457 151.58 50.5574 151.8 50.7251L159.084 41.189ZM150.315 38.3457C147.116 38.3457 144.021 39.2407 141.405 41.3113L148.854 50.7199C149.051 50.564 149.412 50.3457 150.315 50.3457V38.3457ZM141.405 41.3113C138.992 43.222 137.339 45.7491 136.302 48.5806L147.57 52.7084C147.978 51.5946 148.455 51.0358 148.854 50.7199L141.405 41.3113ZM136.302 48.5806C135.288 51.35 134.852 54.3587 134.852 57.5H146.852C146.852 55.446 147.139 53.8844 147.57 52.7084L136.302 48.5806ZM134.852 57.5C134.852 60.6588 135.287 63.6819 136.289 66.4718L147.583 62.4149C147.14 61.1814 146.852 59.5756 146.852 57.5H134.852ZM136.314 66.538C137.357 69.34 138.98 71.8547 141.334 73.7775L148.925 64.4842C148.506 64.1413 147.999 63.5311 147.559 62.3487L136.314 66.538ZM141.405 73.8351C144.021 75.9058 147.116 76.8008 150.315 76.8008V64.8008C149.412 64.8008 149.051 64.5825 148.854 64.4266L141.405 73.8351ZM200.039 76.748H194.039V82.748H200.039V76.748ZM200.039 35.2637V29.2637H194.039V35.2637H200.039ZM210.527 35.2637H216.527V29.2637H210.527V35.2637ZM210.527 76.748V82.748H216.527V76.748H210.527ZM184.541 61.25H178.541V67.25H184.541V61.25ZM184.541 50.7617V44.7617H178.541V50.7617H184.541ZM226.025 50.7617H232.025V44.7617H226.025V50.7617ZM226.025 61.25V67.25H232.025V61.25H226.025ZM206.039 76.748V35.2637H194.039V76.748H206.039ZM200.039 41.2637H210.527V29.2637H200.039V41.2637ZM204.527 35.2637V76.748H216.527V35.2637H204.527ZM210.527 70.748H200.039V82.748H210.527V70.748ZM190.541 61.25V50.7617H178.541V61.25H190.541ZM184.541 56.7617H226.025V44.7617H184.541V56.7617ZM220.025 50.7617V61.25H232.025V50.7617H220.025ZM226.025 55.25H184.541V67.25H226.025V55.25Z" fill="#197887" mask="url(#path-1-outside-1_392_13)"/>
</svg>
