<svg width="234" height="100" viewBox="0 0 234 100" fill="none" xmlns="http://www.w3.org/2000/svg">
<path d="M5.21484 20H20.8594L37.3828 60.3125H38.0859L54.6094 20H70.2539V80H57.9492V40.9473H57.4512L41.9238 79.707H33.5449L18.0176 40.8008H17.5195V80H5.21484V20ZM100.979 80.8789C96.3501 80.8789 92.3657 79.9414 89.0259 78.0664C85.7056 76.1719 83.147 73.4961 81.3501 70.0391C79.5532 66.5625 78.6548 62.4512 78.6548 57.7051C78.6548 53.0762 79.5532 49.0137 81.3501 45.5176C83.147 42.0215 85.6763 39.2969 88.938 37.3437C92.2192 35.3906 96.0669 34.4141 100.481 34.4141C103.45 34.4141 106.213 34.8926 108.772 35.8496C111.35 36.7871 113.596 38.2031 115.51 40.0977C117.444 41.9922 118.948 44.375 120.022 47.2461C121.096 50.0977 121.633 53.4375 121.633 57.2656V60.6934H83.6353V52.959H109.885C109.885 51.1621 109.495 49.5703 108.713 48.1836C107.932 46.7969 106.848 45.7129 105.461 44.9316C104.094 44.1309 102.502 43.7305 100.686 43.7305C98.7915 43.7305 97.1118 44.1699 95.647 45.0488C94.2017 45.9082 93.0688 47.0703 92.2485 48.5352C91.4282 49.9805 91.0083 51.5918 90.9888 53.3691V60.7227C90.9888 62.9492 91.3989 64.873 92.2192 66.4941C93.0591 68.1152 94.2407 69.3652 95.7642 70.2441C97.2876 71.123 99.0942 71.5625 101.184 71.5625C102.571 71.5625 103.84 71.3672 104.993 70.9766C106.145 70.5859 107.131 70 107.952 69.2187C108.772 68.4375 109.397 67.4805 109.827 66.3477L121.37 67.1094C120.784 69.8828 119.583 72.3047 117.766 74.375C115.969 76.4258 113.645 78.0273 110.793 79.1797C107.961 80.3125 104.69 80.8789 100.979 80.8789ZM146.36 80.7324C142.942 80.7324 139.846 79.8535 137.073 78.0957C134.319 76.3184 132.131 73.7109 130.51 70.2734C128.909 66.8164 128.108 62.5781 128.108 57.5586C128.108 52.4023 128.938 48.1152 130.598 44.6973C132.258 41.2598 134.465 38.6914 137.219 36.9922C139.993 35.2734 143.03 34.4141 146.331 34.4141C148.85 34.4141 150.95 34.8438 152.629 35.7031C154.329 36.543 155.696 37.5977 156.731 38.8672C157.786 40.1172 158.586 41.3477 159.133 42.5586H159.514V20H171.965V80H159.661V72.793H159.133C158.547 74.043 157.717 75.2832 156.643 76.5137C155.588 77.7246 154.211 78.7305 152.512 79.5312C150.833 80.332 148.782 80.7324 146.36 80.7324ZM150.315 70.8008C152.327 70.8008 154.026 70.2539 155.413 69.1602C156.819 68.0469 157.893 66.4941 158.635 64.502C159.397 62.5098 159.778 60.1758 159.778 57.5C159.778 54.8242 159.407 52.5 158.665 50.5273C157.922 48.5547 156.848 47.0312 155.442 45.957C154.036 44.8828 152.327 44.3457 150.315 44.3457C148.264 44.3457 146.536 44.9023 145.129 46.0156C143.723 47.1289 142.659 48.6719 141.936 50.6445C141.213 52.6172 140.852 54.9023 140.852 57.5C140.852 60.1172 141.213 62.4316 141.936 64.4434C142.678 66.4355 143.743 67.998 145.129 69.1309C146.536 70.2441 148.264 70.8008 150.315 70.8008ZM200.039 76.748V35.2637H210.527V76.748H200.039ZM184.541 61.25V50.7617H226.025V61.25H184.541Z" fill="url(#paint0_linear_392_13)"/>
<defs>
<linearGradient id="paint0_linear_392_13" x1="-5" y1="58" x2="117" y2="100" gradientUnits="userSpaceOnUse">
<stop stop-color="#6FCAD8"/>
<stop offset="1" stop-color="#197887"/>
</linearGradient>
</defs>
</svg>
