<svg width="33" height="33" viewBox="0 0 33 33" fill="none" xmlns="http://www.w3.org/2000/svg">
<path fill-rule="evenodd" clip-rule="evenodd" d="M14.4999 0.333252C12.2409 0.333444 10.0147 0.873859 8.00703 1.90941C5.99935 2.94496 4.26842 4.44561 2.95866 6.28617C1.6489 8.12674 0.798284 10.2538 0.477781 12.49C0.157279 14.7262 0.376183 17.0065 1.11623 19.1409C1.85628 21.2752 3.09601 23.2017 4.732 24.7595C6.36798 26.3172 8.35278 27.4612 10.5208 28.0959C12.6888 28.7306 14.9772 28.8377 17.195 28.4081C19.4128 27.9786 21.4957 27.0249 23.2699 25.6266L29.3566 31.7133C29.6709 32.0168 30.0919 32.1848 30.5289 32.181C30.9659 32.1772 31.384 32.002 31.693 31.693C32.002 31.3839 32.1773 30.9659 32.1811 30.5289C32.1849 30.0919 32.0169 29.6709 31.7133 29.3566L25.6266 23.2699C27.2733 21.181 28.2985 18.6706 28.5851 16.0261C28.8717 13.3817 28.4079 10.71 27.247 8.31674C26.086 5.92353 24.2747 3.90551 22.0204 2.49364C19.7661 1.08176 17.1599 0.333073 14.4999 0.333252ZM3.6666 14.4999C3.6666 11.6267 4.80797 8.87124 6.83961 6.8396C8.87125 4.80795 11.6268 3.66659 14.4999 3.66659C17.3731 3.66659 20.1286 4.80795 22.1603 6.8396C24.1919 8.87124 25.3333 11.6267 25.3333 14.4999C25.3333 17.3731 24.1919 20.1286 22.1603 22.1602C20.1286 24.1919 17.3731 25.3333 14.4999 25.3333C11.6268 25.3333 8.87125 24.1919 6.83961 22.1602C4.80797 20.1286 3.6666 17.3731 3.6666 14.4999Z" fill="#4CABB9"/>
</svg>
